<svg xmlns="http://www.w3.org/2000/svg" xmlns:xlink="http://www.w3.org/1999/xlink" version="1.1" id="Capa_1" x="0px" y="0px" width="100px" height="100px" viewBox="0 0 100 100" enable-background="new 0 0 100 100" xml:space="preserve">
<g id="Your_Icon">
	<rect x="9.945" y="12.155" width="25.19" height="26.9"/>
	<rect x="42.257" y="13.292" width="47.636" height="1.673"/>
	<rect x="42.257" y="21.6" width="47.636" height="1.67"/>
	<rect x="42.257" y="29.904" width="47.636" height="1.674"/>
	<rect x="42.257" y="38.214" width="47.636" height="1.674"/>
	<rect x="7.686" y="46.524" width="47.64" height="1.671"/>
	<rect x="7.686" y="54.83" width="47.64" height="1.679"/>
	<rect x="7.686" y="63.144" width="47.64" height="1.677"/>
	<rect x="7.686" y="71.455" width="47.64" height="1.669"/>
	<rect x="7.686" y="79.758" width="80.453" height="1.672"/>
	<rect x="6.999" y="85.722" width="25.194" height="14.278"/>
	<rect x="35.315" y="85.722" width="25.192" height="14.278"/>
	<rect x="63.638" y="85.722" width="25.186" height="14.278"/>
	<rect x="9.945" y="-0.649" width="79.948" height="7.515"/>
	<rect x="62.952" y="46.229" width="25.189" height="26.9"/>
</g>
</svg>