<svg xmlns="http://www.w3.org/2000/svg" xmlns:xlink="http://www.w3.org/1999/xlink" version="1.1" id="Ebene_1" x="0px" y="0px" width="69px" height="100px" viewBox="0 0 69 100" enable-background="new 0 0 69 100" xml:space="preserve">
<path fill="#000000" d="M64.591,0H4.409C1.974,0,0,1.999,0,4.464v91.071C0,98.001,1.974,100,4.409,100h60.182  C67.026,100,69,98.001,69,95.536V4.464C69,1.999,67.026,0,64.591,0z M61.21,83.333H7.791V11.111H61.21V83.333z M59,14H10v2h49V14z   M59,18H10v2h49V18z M59,22H10v2h49V22z M59,26H10v2h49V26z M59,30H10v2h49V30z M59,34H10v2h49V34z M59,38H10v2h49V38z M59,42H10v2  h49V42z M59,46H10v2h49V46z M59,50H10v2h49V50z M59,54H10v2h49V54z M59,58H10v2h49V58z M59,62H10v2h49V62z M59,66H10v2h49V66z   M59,70H10v2h49V70z M59,74H10v2h49V74z M59,78H10v2h49V78z"/>
</svg>